<?xml version="1.0" standalone="no"?>
<!DOCTYPE svg PUBLIC "-//W3C//DTD SVG 20010904//EN"
 "http://www.w3.org/TR/2001/REC-SVG-20010904/DTD/svg10.dtd">
<svg version="1.0" xmlns="http://www.w3.org/2000/svg"
 width="204.000000pt" height="204.000000pt" viewBox="0 0 204.000000 204.000000"
 preserveAspectRatio="xMidYMid meet">

<g transform="translate(0.000000,204.000000) scale(0.100000,-0.100000)"
fill="#000000" stroke="none">
<path d="M0 1020 l0 -1020 1020 0 1020 0 0 1020 0 1020 -1020 0 -1020 0 0
-1020z m753 919 c38 -20 76 -61 82 -89 3 -16 14 -30 23 -33 17 -5 227 -96 329
-142 28 -13 129 -57 225 -98 244 -105 265 -116 283 -133 18 -18 19 -63 2 -84
-7 -9 -75 -48 -152 -87 -372 -190 -346 -174 -362 -223 -36 -108 -135 -149
-233 -97 -72 38 -101 128 -66 211 28 68 124 103 207 76 38 -13 41 -12 176 55
76 38 150 76 166 85 l27 17 -137 61 c-383 169 -504 222 -512 222 -5 0 -20 -9
-35 -21 l-26 -21 0 -370 c1 -360 0 -371 -20 -393 -19 -20 -20 -33 -20 -221 0
-109 3 -208 6 -220 3 -12 21 -28 39 -37 38 -18 83 -79 85 -117 6 -73 0 -92
-40 -133 -30 -30 -41 -49 -42 -74 -1 -18 -6 -33 -12 -33 -6 0 -39 10 -73 22
-41 14 -63 27 -63 37 0 9 -10 21 -22 26 -12 6 -33 31 -46 57 -35 67 -25 127
29 181 l39 39 0 624 0 624 -25 16 c-27 18 -65 89 -65 122 0 17 -10 26 -40 38
-23 9 -39 22 -37 28 6 18 127 85 161 89 66 8 128 7 149 -4z m145 -1105 c12 -4
22 -13 22 -20 0 -10 -14 -14 -50 -14 -44 0 -52 -3 -61 -24 -8 -16 -8 -34 -2
-53 9 -25 14 -28 61 -31 37 -2 52 -7 52 -17 0 -33 -104 -30 -132 3 -37 42 -28
129 15 150 25 12 62 14 95 6z m82 -69 l0 -75 35 0 c29 0 35 -4 35 -21 0 -18
-5 -20 -52 -17 l-53 3 -3 80 c-3 89 1 105 23 105 12 0 15 -14 15 -75z m140 0
l5 -70 35 0 35 0 3 73 c3 64 5 72 22 72 18 0 20 -7 20 -69 0 -89 -19 -116 -80
-116 -62 0 -80 27 -80 117 0 61 2 69 18 66 14 -3 18 -17 22 -73z m278 63 c15
-15 16 -55 1 -64 -8 -4 -8 -9 0 -17 6 -6 11 -26 11 -44 0 -39 -25 -53 -96 -53
l-44 0 0 95 0 95 58 0 c32 0 63 -5 70 -12z m-598 -329 c0 -21 -4 -39 -9 -39
-9 0 -20 77 -12 85 11 12 21 -10 21 -46z m30 6 c0 -25 -4 -45 -10 -45 -5 0
-10 20 -10 45 0 25 5 45 10 45 6 0 10 -20 10 -45z m70 35 c0 -5 -4 -10 -10
-10 -5 0 -10 -16 -10 -35 0 -19 -4 -35 -10 -35 -5 0 -10 16 -10 35 0 19 -4 35
-10 35 -5 0 -10 5 -10 10 0 6 14 10 30 10 17 0 30 -4 30 -10z m60 -35 c0 -25
-4 -45 -10 -45 -5 0 -10 20 -10 45 0 25 5 45 10 45 6 0 10 -20 10 -45z m58 12
l22 -32 0 34 c0 19 3 32 6 28 8 -8 8 -77 0 -85 -4 -3 -18 7 -31 23 l-24 30 -1
-27 c0 -16 -4 -28 -10 -28 -11 0 -14 73 -3 83 11 12 17 8 41 -26z m120 21 c7
-7 12 -21 12 -33 0 -29 -19 -45 -52 -45 -27 0 -28 2 -28 45 0 43 1 45 28 45
15 0 33 -5 40 -12z m104 -14 c17 -36 0 -59 -43 -59 -30 0 -34 3 -37 28 -7 57
57 81 80 31z m86 -1 c2 -13 -2 -23 -9 -23 -8 0 -8 -4 1 -15 17 -20 5 -32 -15
-15 -17 14 -20 40 -5 40 6 0 10 5 10 10 0 6 -7 10 -15 10 -10 0 -15 -11 -15
-35 0 -19 -4 -35 -10 -35 -5 0 -10 21 -10 46 0 45 0 45 33 42 24 -2 33 -8 35
-25z m72 17 c0 -5 -9 -10 -20 -10 -11 0 -20 -4 -20 -10 0 -5 9 -10 20 -10 11
0 20 -5 20 -11 0 -6 -9 -9 -20 -6 -13 3 -20 0 -20 -8 0 -8 12 -16 28 -18 22
-3 20 -4 -10 -6 l-38 -1 0 45 c0 43 1 45 30 45 17 0 30 -4 30 -10z"/>
<path d="M1310 745 c0 -54 0 -55 30 -55 23 0 30 4 30 20 0 13 -7 20 -20 20
-11 0 -20 6 -20 14 0 8 9 18 20 21 32 10 25 35 -10 35 -30 0 -30 -1 -30 -55z"/>
<path d="M1090 506 c0 -20 5 -26 21 -26 15 0 20 5 17 22 -5 34 -38 37 -38 4z"/>
<path d="M1187 524 c-4 -4 -7 -16 -7 -26 0 -14 6 -19 23 -16 14 2 22 10 22 23
0 20 -25 32 -38 19z"/>
</g>
</svg>
